# xmcd
#
# Track frame offsets: 
#        152
#        14356
#        24949
#        34410
#        48887
#        59301
#        67942
#        81816
#        93590
#        105407
#        115080
#        125949
#        134850
#        151125
#        167917
#        186493
#        195714
#        209417
#        222666
#        230303
#        240408
#        251403
#
# Disc length: 3443 seconds
#
# Revision: 0
# Processed by: cddbd v1.5PL3 Copyright (c) Steve Scherf et al.
# Submitted via: ExactAudioCopy v0.95a5
#
DISCID=3a0d7116
DTITLE=The Bluegrass Prophets - Bluegrass Prophets
DYEAR=1900
DGENRE=Bluegrass
TTITLE0=I'm Using My Bible For A Roadmap
TTITLE1=Born Again
TTITLE2=He Will Set Your Fields On Fire
TTITLE3=Just Suppose
TTITLE4=Crying Holy Unto The Lord
TTITLE5=River Of Jordan
TTITLE6=How Great Thou Art
TTITLE7=Where No One Stands Along
TTITLE8=Swing Low Sweet Chariot
TTITLE9=Taking My Auditions To Sing In The Sky
TTITLE10=Keep Your Eyes On Jesus
TTITLE11=Someday There'll Be No Tomorrow
TTITLE12=What A Friend We Have In Jesus
TTITLE13=Please Search The Book Again
TTITLE14=What Would You Give
TTITLE15=He Included Me
TTITLE16=Mother's Bible
TTITLE17=In His Arms I'm Not Afraid
TTITLE18=Jesus Sured Changed Me
TTITLE19=Go Home
TTITLE20=Glory Hallelujah Now I'm Satisfied
TTITLE21=I will Return
EXTD=
EXTT0=
EXTT1=
EXTT2=
EXTT3=
EXTT4=
EXTT5=
EXTT6=
EXTT7=
EXTT8=
EXTT9=
EXTT10=
EXTT11=
EXTT12=
EXTT13=
EXTT14=
EXTT15=
EXTT16=
EXTT17=
EXTT18=
EXTT19=
EXTT20=
EXTT21=
PLAYORDER=
